
<svg width="254" height="123" viewBox="0 0 254 123" fill="none" xmlns="http://www.w3.org/2000/svg">
<path fill-rule="evenodd" clip-rule="evenodd" d="M111.436 41.6227C111.644 42.1342 111.399 42.7177 110.887 42.9261L97.8773 48.2261C97.3658 48.4345 96.7823 48.1887 96.5739 47.6773C96.3656 47.1658 96.6113 46.5822 97.1227 46.3739L110.133 41.0739C110.644 40.8655 111.228 41.1112 111.436 41.6227Z" fill="#141936"/>
<path fill-rule="evenodd" clip-rule="evenodd" d="M112.636 44.3527C112.844 44.8642 112.599 45.4477 112.087 45.6561L99.0772 50.9561C98.5658 51.1645 97.9822 50.9187 97.7739 50.4073C97.5655 49.8958 97.8112 49.3123 98.3227 49.1039L111.333 43.8039C111.844 43.5955 112.428 43.8413 112.636 44.3527Z" fill="#141936"/>
<path fill-rule="evenodd" clip-rule="evenodd" d="M113.586 47.0633C113.794 47.5749 113.548 48.1583 113.037 48.3663L100.027 53.6563C99.5151 53.8644 98.9317 53.6183 98.7237 53.1067C98.5157 52.595 98.7618 52.0117 99.2734 51.8036L112.283 46.5136C112.795 46.3056 113.378 46.5517 113.586 47.0633Z" fill="#141936"/>
<path d="M66.5699 122.32H39.3399L34.8899 65.33H71.0199L66.5699 122.32Z" fill="#C6C7D8"/>
<path d="M75.41 61.45H30.5V65.33H75.41V61.45Z" fill="#8F90A6"/>
<path d="M67.79 57.94H38.12V61.82H67.79V57.94Z" fill="#8F90A6"/>
<path d="M65.24 56H60.78V59.88H65.24V56Z" fill="#8F90A6"/>
<path d="M241.99 108.59H56.25L55.71 106.8L54.24 101.95H233.23C237.45 101.95 240.83 104.83 241.99 108.59Z" fill="#004FC4"/>
<path d="M56.67 115.23C60.6851 115.23 63.94 111.975 63.94 107.96C63.94 103.945 60.6851 100.69 56.67 100.69C52.6549 100.69 49.4 103.945 49.4 107.96C49.4 111.975 52.6549 115.23 56.67 115.23Z" fill="#272466"/>
<path d="M253.45 118.11C253.45 119.17 253.27 120.25 252.89 121.33C252.73 121.78 252.54 122.21 252.31 122.62H62.97L58.58 108.59H243.92C248.3 108.59 251.8 111.47 253 115.23C253.29 116.15 253.45 117.12 253.45 118.11Z" fill="#272466"/>
<path d="M253.09 115.23H60.66L60.1 113.44L58.58 108.59H244.01C248.39 108.59 251.89 111.47 253.09 115.23Z" fill="#272466"/>
<path d="M198.21 112.96H180.21V118.19H198.21V112.96Z" fill="#141936"/>
<path d="M228.72 112.96H217.49V118.19H228.72V112.96Z" fill="#141936"/>
<path fill-rule="evenodd" clip-rule="evenodd" d="M13.3 99.47C9.82061 99.47 7 102.291 7 105.77C7 109.249 9.8206 112.07 13.3 112.07C16.7794 112.07 19.6 109.249 19.6 105.77C19.6 102.291 16.7794 99.47 13.3 99.47ZM0 105.77C0 98.4246 5.95461 92.47 13.3 92.47C20.6454 92.47 26.6 98.4246 26.6 105.77C26.6 113.115 20.6454 119.07 13.3 119.07C5.95462 119.07 0 113.115 0 105.77Z" fill="#F26C6E"/>
<path d="M36.94 122.32H13.25L9.38 86.87H40.82L36.94 122.32Z" fill="#F05152"/>
<path d="M198.52 38.54C198.52 38.54 209.43 35.1 209.04 36.95C208.66 38.8 201.51 40.76 201.51 40.76C201.51 40.76 208.66 38.38 209.55 40.76C210.44 43.14 204.95 44.42 204.95 44.42L198.52 38.54Z" fill="#9866F5"/>
<path d="M106.457 39.6272C106.457 39.6272 96.8874 25.7572 98.7374 22.6272C100.867 19.0072 114.567 22.5572 114.567 22.5572L106.457 39.6272Z" fill="#9866F5"/>
<path d="M111.397 42.5272C111.397 42.5272 101.827 28.6572 103.677 25.5272C105.807 21.9072 119.507 25.4572 119.507 25.4572L111.397 42.5272Z" fill="#F390BA"/>
<path d="M123.5 14.1074C123.5 14.1074 134.17 -0.372649 138.39 0.00735054C143.27 0.447351 145.63 14.4074 145.63 14.4074L123.5 14.1074Z" fill="#9866F5"/>
<path d="M124.9 18.6873C124.9 18.6873 133.79 4.37735 137.41 4.81735C141.58 5.32735 143.79 19.2973 143.79 19.2973L124.9 18.6873Z" fill="#F390BA"/>
<path d="M236.71 94.8C236.55 95.4 236.37 96 236.18 96.59C235.33 98.48 234.29 100.28 233.08 101.95H193.66L189.97 102.18L186.72 102.38L142.29 105.19C140.83 104.27 139.41 103.29 138.02 102.27C137.32 101.74 136.63 101.2 135.95 100.65C134.7 99.64 133.48 98.58 132.3 97.47C132.13 97.32 131.96 97.16 131.79 96.99C131.43 96.67 131.08 96.32 130.74 95.98C130.55 95.8 130.36 95.61 130.17 95.42C130.03 95.28 129.9 95.14 129.77 95C128.6 93.8 127.47 92.56 126.38 91.28C126.35 91.24 126.32 91.21 126.28 91.17C125.88 90.69 125.47 90.21 125.08 89.72C124.86 89.47 124.66 89.21 124.45 88.95C124.29 88.76 124.14 88.56 123.99 88.37C124.15 88.57 124.3 88.76 124.46 88.95C127.38 83.8 129.09 79.01 129.64 77.36C129.77 76.96 129.87 76.55 129.93 76.14C130.48 72.6 128.41 69.06 124.89 67.89C120.97 66.58 116.72 68.7 115.41 72.63C115.27 73.05 115.11 73.5 114.93 73.96C114.43 72.98 113.95 71.99 113.49 70.99C112.11 67.97 110.89 64.9 109.84 61.79C109.26 60.06 108.73 58.32 108.25 56.57C107.87 55.2 107.53 53.79 107.22 52.37C105.29 43.51 104.88 33.92 108.36 25.49C109.37 23.04 110.67 20.85 112.2 18.94C112.68 18.33 113.18 17.75 113.71 17.2C113.94 16.95 114.18 16.71 114.42 16.48C114.56 16.34 114.71 16.2 114.86 16.06C115.14 15.8 115.42 15.55 115.71 15.32C115.94 15.12 116.17 14.93 116.4 14.75C116.6 14.58 116.81 14.43 117.01 14.27C117.16 14.16 117.32 14.05 117.47 13.94C117.76 13.73 118.06 13.53 118.36 13.34C118.58 13.19 118.81 13.05 119.04 12.91C119.21 12.8 119.38 12.7 119.56 12.6C120.02 12.33 120.49 12.08 120.97 11.85C128.33 8.15999 137.35 7.84999 145.64 11.05C153.94 14.25 160.97 19.82 168.61 24.26C178.41 29.95 189.48 33.53 199.83 38.11C210.5 42.83 220.39 48.06 227.92 57.23C230.25 60.08 232.24 63.02 233.85 66.03C233.87 66.08 233.89 66.12 233.91 66.17C234.22 66.85 234.52 67.54 234.8 68.24C234.96 68.65 235.12 69.07 235.28 69.49C235.54 70.2 235.78 70.93 236.01 71.65C236.02 71.69 236.03 71.72 236.04 71.75C236.27 72.48 236.48 73.22 236.67 73.96C237.16 75.9 237.53 77.88 237.76 79.86C237.85 80.59 237.91 81.32 237.96 82.06C238.22 86.33 237.84 90.63 236.71 94.8Z" fill="#9866F5"/>
<path d="M116.2 76.4C117.2 76.22 118.26 76.08 119.37 75.99C118.49 76.47 117.71 77.14 117.07 77.97C116.77 77.45 116.48 76.93 116.2 76.4Z" fill="#F390BA"/>
<path d="M150.25 74.53C152.63 92.91 134.66 103.38 134.66 103.38L174.08 88.95C174.08 88.96 147.87 56.15 150.25 74.53Z" fill="#9866F5"/>
<path d="M117.08 77.96C117.13 78.06 117.17 78.15 117.23 78.24C117.17 78.15 117.12 78.06 117.07 77.97L117.08 77.96Z" fill="#F390BA"/>
<path d="M186.72 102.38L142.29 105.19C140.83 104.27 139.41 103.29 138.02 102.27C137.32 101.74 136.63 101.2 135.95 100.65C134.7 99.64 133.48 98.58 132.3 97.47C132.13 97.32 131.96 97.16 131.79 96.99C131.43 96.67 131.08 96.32 130.74 95.98C130.41 95.66 130.09 95.33 129.77 95C128.6 93.8 127.47 92.56 126.38 91.28C126.35 91.24 126.32 91.21 126.28 91.17C125.88 90.69 125.47 90.21 125.08 89.72C124.87 89.47 124.66 89.21 124.46 88.95C127.38 83.8 129.09 79.01 129.64 77.36C129.77 76.96 129.87 76.55 129.93 76.14C138.26 76.96 147.89 79.33 157.53 83.22C170.81 88.58 181.23 95.67 186.72 102.38Z" fill="#F390BA"/>
<path fill-rule="evenodd" clip-rule="evenodd" d="M165.367 73.7501C169.096 75.5537 170.656 80.0387 168.853 83.7675L162.101 80.5017C168.853 83.7675 168.851 83.7709 168.849 83.7743L168.846 83.7817L168.838 83.7978L168.819 83.8362C168.805 83.8644 168.788 83.8979 168.769 83.9365C168.73 84.0136 168.68 84.1112 168.619 84.2277C168.497 84.4607 168.329 84.7701 168.115 85.1441C167.688 85.8908 167.07 86.9023 166.253 88.0804C164.627 90.4229 162.153 93.503 158.734 96.4716C151.78 102.508 140.904 108.038 125.958 105.939C121.856 105.363 118.998 101.571 119.574 97.4687C120.15 93.3668 123.942 90.5086 128.044 91.0846C137.808 92.4558 144.482 88.9804 148.901 85.1443C151.167 83.1767 152.836 81.1037 153.93 79.5271C154.473 78.7456 154.86 78.1061 155.097 77.6917C155.216 77.4851 155.295 77.3365 155.337 77.2565C155.354 77.2248 155.365 77.204 155.369 77.1948C157.186 73.4956 161.652 71.9531 165.367 73.7501Z" fill="#9866F5"/>
<path d="M236.71 94.8C236.55 95.4 236.37 96 236.18 96.59C235.64 98.26 234.98 99.91 234.19 101.52C234.11 101.66 234.04 101.81 233.96 101.95L161.06 103.38C158.66 99.12 156.82 93.03 156.25 88.15C156.21 87.79 156.17 87.43 156.14 87.07C156.08 86.41 156.04 85.71 156.02 85.03C155.38 60.35 180.19 35.56 205.74 41.76C209.59 42.69 213.22 44.24 216.56 46.27C216.57 46.28 216.58 46.28 216.59 46.3C217.11 46.62 217.62 46.94 218.12 47.29C219.86 48.45 221.51 49.75 223.05 51.17C225.04 52.98 226.86 54.98 228.49 57.13C230.6 59.88 232.4 62.88 233.85 66.03C233.87 66.08 233.89 66.12 233.91 66.17C234.22 66.85 234.52 67.54 234.8 68.24C234.96 68.65 235.12 69.07 235.28 69.49C235.54 70.2 235.78 70.93 236.01 71.65C236.02 71.69 236.03 71.72 236.04 71.75C236.27 72.48 236.48 73.22 236.67 73.96C237.16 75.9 237.53 77.88 237.76 79.86C237.85 80.59 237.91 81.32 237.96 82.06C238.22 86.33 237.84 90.63 236.71 94.8Z" fill="#743DD9"/>
<path d="M197.606 72.4352L204.374 92.8885L156.196 110.812L148.102 114.078L144.932 115.352L140.739 102.672L143.05 101.444L164 90.3052L197.606 72.4352Z" fill="#743DD9"/>
<path d="M141.685 108.15C143.649 107.977 145.1 106.244 144.927 104.28C144.753 102.316 143.02 100.864 141.056 101.038C139.092 101.212 137.641 102.945 137.814 104.909C137.988 106.873 139.721 108.324 141.685 108.15Z" fill="#743DD9"/>
<path d="M143.315 113.076C145.279 112.902 146.731 111.169 146.557 109.205C146.383 107.241 144.65 105.79 142.686 105.964C140.722 106.137 139.271 107.87 139.445 109.834C139.618 111.798 141.351 113.25 143.315 113.076Z" fill="#743DD9"/>
<path d="M145.646 117.638C147.61 117.465 149.062 115.732 148.888 113.768C148.714 111.804 146.981 110.352 145.017 110.526C143.053 110.7 141.602 112.433 141.776 114.397C141.949 116.361 143.682 117.812 145.646 117.638Z" fill="#743DD9"/>
<path d="M233.91 66.17C232.76 66.24 231.6 66.4 230.46 66.65C221.51 68.6 216.82 73.84 214.27 72.93C211.71 72.01 213.35 61.97 225.33 57.91C226.19 57.62 227.06 57.39 227.92 57.23C228.11 57.19 228.3 57.16 228.49 57.13C230.6 59.88 232.4 62.88 233.85 66.03C233.87 66.08 233.89 66.12 233.91 66.17Z" fill="#9866F5"/>
<path d="M223.05 51.17C222.8 51.17 222.55 51.18 222.3 51.2C221.72 51.24 221.13 51.31 220.55 51.44C216.31 52.36 214.08 54.85 212.87 54.42C211.67 53.98 212.42 49.33 217.93 47.36C217.99 47.33 218.06 47.31 218.12 47.29C219.86 48.45 221.51 49.75 223.05 51.17Z" fill="#9866F5"/>
<path d="M129.93 76.14C128.75 76.03 127.6 75.94 126.47 75.89C123.94 75.76 121.56 75.79 119.37 75.99C118.38 76.06 117.16 76.15 116.52 76.98C116.21 76.47 116.48 76.92 116.2 76.4C115.76 75.59 115.34 74.78 114.93 73.96C115.11 73.5 115.27 73.05 115.41 72.63C116.72 68.7 120.97 66.58 124.89 67.89C128.41 69.06 130.48 72.6 129.93 76.14Z" fill="#9866F5"/>
<path d="M129.93 76.14C129.87 76.55 129.77 76.96 129.64 77.36C129.09 79.01 127.38 83.8 124.46 88.95C124.3 88.76 124.15 88.57 123.99 88.37C123.68 87.97 123.38 87.57 123.09 87.17C122.36 86.22 121.67 85.25 121 84.26C120.67 83.79 120.36 83.32 120.05 82.85C119.93 82.68 119.82 82.51 119.71 82.33C119.42 81.88 119.13 81.43 118.85 80.97C118.73 80.78 118.61 80.59 118.5 80.39C118.12 79.79 117.76 79.18 117.42 78.57C117.41 78.56 117.4 78.54 117.39 78.52C117.33 78.43 117.28 78.33 117.23 78.24C117.17 78.15 117.13 78.06 117.08 77.96C117.72 77.13 118.49 76.47 119.37 75.99C121.56 75.79 123.94 75.76 126.47 75.89C127.6 75.94 128.75 76.03 129.93 76.14Z" fill="#F390BA"/>
<path d="M123.01 87.2L122.08 88.51V88.52C118.86 93.6 114.21 99.05 108.22 101.23C106.14 101.99 104.03 102.32 101.93 102.21C99.48 102.09 97.06 101.39 94.73 100.11C90.66 97.88 89.23 94.63 88.74 92.31C87.27 85.19 92.78 78.07 97.21 72.36C98.02 71.32 98.79 70.32 99.37 69.52C101.49 66.54 101 63 100.99 62.96C100.31 59.32 102.71 55.81 106.35 55.13C107 55.01 107.66 54.99 108.28 55.06C111.17 55.35 113.63 57.51 114.18 60.5C114.32 61.21 115.14 66.25 113.07 71.98C112.46 73.72 111.56 75.54 110.3 77.3C109.56 78.33 108.72 79.43 107.82 80.58C106.38 82.44 103.31 86.4 102.28 88.76C102.78 88.86 103.19 88.78 103.62 88.62C107.45 87.23 112.67 78.77 114.92 73.57C115.25 74.32 122.88 87.03 123.01 87.2Z" fill="#844DE8"/>
<path d="M127.292 34.0918C126.48 33.8075 126.327 32.7189 127.009 32.1876C128.813 30.8005 131.697 29.0957 132.239 29.6429C132.814 30.2215 132.225 32.5006 131.73 33.8783C131.574 34.3115 131.153 34.6024 130.698 34.5881C129.833 34.5795 128.411 34.4841 127.292 34.0918Z" fill="#141936"/>
<path fill-rule="evenodd" clip-rule="evenodd" d="M140.882 31.2433C141.404 31.4249 141.679 31.995 141.498 32.5165L140.553 32.1877C141.498 32.5165 141.497 32.517 141.497 32.5174L141.497 32.5183L141.496 32.5203L141.495 32.5249L141.49 32.5367L141.478 32.5707C141.467 32.5979 141.453 32.6339 141.435 32.678C141.398 32.7661 141.345 32.8868 141.272 33.0338C141.126 33.3276 140.902 33.7282 140.576 34.1855C139.924 35.1015 138.865 36.2448 137.226 37.2091C136.75 37.4891 136.138 37.3303 135.857 36.8543C135.577 36.3783 135.736 35.7654 136.212 35.4853C137.574 34.6841 138.432 33.7477 138.947 33.0253C139.205 32.6634 139.376 32.3552 139.48 32.145C139.532 32.04 139.568 31.9598 139.588 31.9101C139.599 31.8853 139.605 31.8681 139.609 31.8594L139.611 31.853C139.795 31.3353 140.362 31.0624 140.882 31.2433Z" fill="#141936"/>
<path d="M132.523 31.0094C133.149 30.4347 133.457 29.7519 133.211 29.4844C132.965 29.2169 132.259 29.4659 131.633 30.0406C131.007 30.6153 130.699 31.298 130.945 31.5656C131.191 31.8331 131.897 31.5841 132.523 31.0094Z" fill="white"/>
<path fill-rule="evenodd" clip-rule="evenodd" d="M162.53 8.39966C162.861 8.84134 162.772 9.46818 162.33 9.79974L151.1 18.2297C150.659 18.5613 150.032 18.472 149.7 18.0303C149.369 17.5887 149.458 16.9618 149.9 16.6303L161.13 8.20025C161.571 7.86869 162.198 7.95797 162.53 8.39966Z" fill="#141936"/>
<path fill-rule="evenodd" clip-rule="evenodd" d="M164.379 10.7292C164.711 11.1707 164.622 11.7976 164.181 12.1294L152.951 20.5694C152.509 20.9012 151.882 20.8123 151.551 20.3708C151.219 19.9293 151.308 19.3024 151.749 18.9706L162.979 10.5306C163.421 10.1988 164.048 10.2877 164.379 10.7292Z" fill="#141936"/>
<path fill-rule="evenodd" clip-rule="evenodd" d="M166.53 13.3997C166.861 13.8413 166.772 14.4682 166.33 14.7997L155.1 23.2297C154.659 23.5613 154.032 23.472 153.7 23.0303C153.369 22.5887 153.458 21.9618 153.9 21.6303L165.13 13.2003C165.571 12.8687 166.198 12.958 166.53 13.3997Z" fill="#141936"/>
<path d="M118.569 34.5185C117.813 35.2896 116.861 36.0803 115.772 36.8303C112.385 39.1661 108.893 40.118 108.022 38.9736C107.242 37.9642 108.771 35.6116 111.501 33.476C111.846 33.1959 112.193 32.9389 112.576 32.6804C115.988 30.3551 119.456 29.4042 120.339 30.5481C120.924 31.334 120.175 32.8799 118.569 34.5185Z" fill="#FFF1B6"/>
<path d="M141.569 18.5185C140.813 19.2896 139.861 20.0803 138.772 20.8303C135.385 23.1661 131.893 24.118 131.022 22.9736C130.242 21.9642 131.771 19.6116 134.501 17.476C134.846 17.1959 135.193 16.9389 135.576 16.6804C138.988 14.3551 142.456 13.4042 143.339 14.5481C143.924 15.334 143.175 16.8799 141.569 18.5185Z" fill="#FFF1B6"/>
<path d="M118.671 34.5107C117.908 35.2827 116.947 36.0743 115.847 36.8253C112.428 39.1642 108.902 40.1182 108.023 38.9731C107.237 37.9632 108.78 35.6081 111.537 33.4699C111.796 33.4246 112.055 33.3793 112.328 33.3567C114.591 33.1256 116.795 33.5683 118.671 34.5107Z" fill="#141936"/>
<path d="M141.671 18.5107C140.908 19.2827 139.947 20.0743 138.847 20.8253C135.428 23.1642 131.902 24.1182 131.023 22.9731C130.237 21.9632 131.78 19.6081 134.537 17.4699C134.796 17.4246 135.055 17.3793 135.328 17.3567C137.591 17.1256 139.795 17.5683 141.671 18.5107Z" fill="#141936"/>
<path d="M113.698 35.2807C114.802 35.2358 115.66 34.3046 115.615 33.201C115.57 32.0973 114.639 31.2391 113.536 31.284C112.432 31.329 111.574 32.2601 111.619 33.3638C111.664 34.4674 112.595 35.3257 113.698 35.2807Z" fill="white"/>
<path d="M136.698 19.2807C137.802 19.2358 138.66 18.3046 138.615 17.201C138.57 16.0973 137.639 15.2391 136.536 15.284C135.432 15.329 134.574 16.2601 134.619 17.3638C134.664 18.4674 135.595 19.3257 136.698 19.2807Z" fill="white"/>
<path d="M115.99 21.36C115.86 21.42 115.71 21.45 115.57 21.45C115.19 21.45 114.83 21.24 114.66 20.87C114.06 19.6 113.79 18.34 113.71 17.2C113.94 16.95 114.18 16.71 114.42 16.48C114.56 16.34 114.71 16.2 114.86 16.06C115.14 15.8 115.42 15.55 115.71 15.32C115.6 16.59 115.67 18.32 116.47 20.03C116.71 20.53 116.49 21.12 115.99 21.36Z" fill="#4352A0"/>
<path d="M118.67 18.69C118.53 18.75 118.39 18.78 118.25 18.78C117.87 18.78 117.51 18.57 117.34 18.21C116.79 17.02 116.51 15.84 116.4 14.75C116.6 14.58 116.81 14.43 117.01 14.27C117.16 14.16 117.32 14.05 117.47 13.94C117.76 13.73 118.06 13.53 118.36 13.34C118.35 13.43 118.35 13.51 118.35 13.6C118.35 14.73 118.54 16.05 119.15 17.36C119.38 17.86 119.17 18.45 118.67 18.69Z" fill="#4352A0"/>
<path d="M121.28 16.6C121.14 16.66 121 16.69 120.85 16.69C120.48 16.69 120.12 16.48 119.95 16.11C119.44 15.01 119.16 13.92 119.04 12.91C119.21 12.8 119.38 12.7 119.56 12.6C120.02 12.33 120.49 12.08 120.97 11.85C121 12.9 121.21 14.09 121.76 15.27C121.99 15.77 121.78 16.36 121.28 16.6Z" fill="#4352A0"/>
</svg>