<svg width="40" height="40" viewBox="0 0 40 40" fill="none" xmlns="http://www.w3.org/2000/svg">
<circle cx="20" cy="20" r="20" fill="#FFD770"/>
<path fill-rule="evenodd" clip-rule="evenodd" d="M20 10.5714C14.7927 10.5714 10.5714 14.7927 10.5714 20C10.5714 25.2073 14.7927 29.4286 20 29.4286C25.2073 29.4286 29.4286 25.2073 29.4286 20C29.4286 14.7927 25.2073 10.5714 20 10.5714ZM9 20C9 13.9249 13.9249 9 20 9C26.0751 9 31 13.9249 31 20C31 26.0751 26.0751 31 20 31C13.9249 31 9 26.0751 9 20Z" fill="#1C1C28"/>
<path d="M21.5714 15.2857C21.5714 16.1536 20.8679 16.8571 20 16.8571C19.1321 16.8571 18.4286 16.1536 18.4286 15.2857C18.4286 14.4178 19.1321 13.7143 20 13.7143C20.8679 13.7143 21.5714 14.4178 21.5714 15.2857Z" fill="#1C1C28"/>
<path d="M21.5714 19.2143C21.5714 20.0822 20.8679 20.7857 20 20.7857C19.1321 20.7857 18.4286 20.0822 18.4286 19.2143C18.4286 18.3464 19.1321 17.6429 20 17.6429C20.8679 17.6429 21.5714 18.3464 21.5714 19.2143Z" fill="#1C1C28"/>
<path d="M21.5714 24.7143C21.5714 25.5822 20.8679 26.2857 20 26.2857C19.1321 26.2857 18.4286 25.5822 18.4286 24.7143C18.4286 23.8464 19.1321 23.1429 20 23.1429C20.8679 23.1429 21.5714 23.8464 21.5714 24.7143Z" fill="#1C1C28"/>
<path d="M18.4286 19.2143H21.5714V24.7143H18.4286V19.2143Z" fill="#1C1C28"/>
<path d="M16.8571 18.4286C16.8571 17.9946 17.2089 17.6429 17.6429 17.6429H20V20H17.6429C17.2089 20 16.8571 19.6482 16.8571 19.2143V18.4286Z" fill="#1C1C28"/>
</svg>
