<svg width="24" height="24" viewBox="0 0 24 24" fill="none" xmlns="http://www.w3.org/2000/svg">
  <path fill-rule="evenodd" clip-rule="evenodd" d="M20 11.9867C20 12.5389 19.5523 12.9867 19 12.9867L7.41137 12.9867L9.71436 15.2935C10.1046 15.6843 10.104 16.3175 9.71318 16.7077C9.32233 17.0979 8.68917 17.0974 8.29897 16.7065L4.29229 12.6932C4.10471 12.5053 3.99954 12.2505 3.99998 11.985C4.00043 11.7195 4.10644 11.4651 4.29465 11.2778L8.30133 7.29112C8.69283 6.90158 9.32599 6.90316 9.71554 7.29467C10.1051 7.68617 10.1035 8.31933 9.712 8.70887L7.42277 10.9867L19 10.9867C19.5523 10.9867 20 11.4344 20 11.9867Z" fill="#008580"/>
</svg>
