<svg width="24" height="24" viewBox="0 0 24 24" fill="none" xmlns="http://www.w3.org/2000/svg">
<path fill-rule="evenodd" clip-rule="evenodd" d="M2.35699 2.32347C2.79199 1.89064 3.4955 1.89241 3.92833 2.32741L11.9878 10.4273L20.1039 2.32478C20.5382 1.89123 21.2417 1.89182 21.6752 2.32609C22.1088 2.76037 22.1082 3.46389 21.6739 3.89744L13.5552 12.0026L21.6174 20.1052C22.0502 20.5402 22.0484 21.2437 21.6134 21.6765C21.1784 22.1094 20.4749 22.1076 20.0421 21.6726L11.9825 13.5726L3.89613 21.6455C3.46185 22.0791 2.75833 22.0785 2.32478 21.6442C1.89123 21.2099 1.89182 20.5064 2.32609 20.0729L10.4151 11.9973L2.35305 3.89482C1.92023 3.45982 1.92199 2.7563 2.35699 2.32347Z" fill="white"/>
</svg>
