
<svg width="22" height="20" viewBox="0 0 22 20"  xmlns="http://www.w3.org/2000/svg">
  <path  d="M14.7 1.02564C14.7 0.459195 15.1477 0 15.7 0H21C21.5523 0 22 0.459195 22 1.02564V6.49329C22 7.05974 21.5523 7.51893 21 7.51893C20.4477 7.51893 20 7.05974 20 6.49329V3.49553L11.7058 11.9721C11.3146 12.3719 10.6815 12.3707 10.2916 11.9695C9.90181 11.5682 9.90294 10.9188 10.2942 10.519L18.5797 2.05128H15.7C15.1477 2.05128 14.7 1.59209 14.7 1.02564ZM0 5.50415C0 3.68104 1.21258 2.05128 2.99857 2.05128H10.9929C11.5451 2.05128 11.9929 2.51048 11.9929 3.07692C11.9929 3.64337 11.5451 4.10256 10.9929 4.10256H2.99857C2.58614 4.10256 2 4.51679 2 5.50415V16.4194C2 17.4806 2.64602 17.9487 2.99857 17.9487H16.839C17.2818 17.9487 18 17.3713 18 16.4194V11.2456C18 10.6791 18.4477 10.2199 19 10.2199C19.5523 10.2199 20 10.6791 20 11.2456V16.4194C20 18.2779 18.5947 20 16.839 20H2.99857C1.15269 20 0 18.1686 0 16.4194V5.50415Z" />
</svg>
